<?xml version="1.0" encoding="UTF-8"?>
<svg width="55px" height="41px" viewBox="0 0 55 41" version="1.1" xmlns="http://www.w3.org/2000/svg" xmlns:xlink="http://www.w3.org/1999/xlink">
    <!-- Generator: Sketch 43.1 (39012) - http://www.bohemiancoding.com/sketch -->
    <title>Shape</title>
    <desc>Created with Sketch.</desc>
    <defs></defs>
    <g id="Page-1" stroke="none" stroke-width="1" fill="none" fill-rule="evenodd">
        <g id="Artboard" transform="translate(-63.000000, -16.000000)" fill="#FFFFFF">
            <g id="Group-29">
                <path d="M117.661621,36.3079825 C117.644371,25.0690902 105.393771,15.9769056 90.2997706,16.0000441 C86.2082699,16.0061979 82.3284409,16.6821364 78.8458355,17.8873056 C75.8910544,17.5234902 72.9862958,18.6836133 72.9862958,18.6836133 C72.9862958,18.6836133 75.1047391,22.1024441 78.2854842,23.3521671 C80.5212218,24.2306902 83.0447739,23.4914902 83.4865988,23.0742595 C83.4870916,23.0740133 82.6187196,21.3041671 79.8149919,20.0650287 C78.7300197,19.5860133 77.2308213,19.1540133 75.5667701,18.9196748 C76.6874727,19.015921 77.6383943,18.8948133 79.9017305,19.6148133 C83.0526592,20.6173979 83.8845616,22.4962902 83.8845616,22.4962902 C84.0651849,20.7261979 82.8784427,19.4759825 81.7104281,18.8057056 C84.3953831,18.1061364 87.2870816,17.7216441 90.3012491,17.7172133 C104.445807,17.6953056 115.925369,26.0212133 115.940894,36.3129056 C115.946068,39.4983825 114.851732,42.4989979 112.918841,45.124721 C112.885082,45.0914902 111.624907,43.8041056 110.082832,42.6784441 C110.776495,38.5307518 107.722901,34.6757364 104.399973,32.7734595 C105.923567,27.9313671 101.241899,22.9853979 92.7602401,22.8084133 C91.497848,22.7985671 89.7704678,22.8635518 88.646069,22.9844133 L89.1172175,19.9926595 L88.4454859,19.9936441 C86.0919612,20.0128441 85.2174288,21.5185671 84.9633733,22.1095825 L84.0543426,23.8565364 C78.7788102,25.3189364 75.8848939,27.8198595 75.6261565,28.0428748 C75.0157827,28.5693979 75.1414551,28.7965979 76.2286451,28.3473671 C78.1691756,27.5451518 80.4273371,26.8246595 82.7941682,26.2774595 L75.6771648,39.3595518 C71.8695359,38.9243518 67.89804,39.3706287 65.8887592,41.9485979 C65.1325068,40.1937671 64.7217303,38.3276748 64.7190198,36.3906902 C64.7096559,30.4293364 68.5490725,25.1158595 74.5308349,21.6955518 C73.0170979,20.7099518 71.6465289,21.5104441 71.2157927,21.819121 C71.2039647,21.8274902 71.2042111,21.8279825 71.1921367,21.835121 C66.1290154,25.5370287 62.9913932,30.692721 63.0000177,36.3909364 C63.0042068,39.0550595 63.696391,41.5975825 64.9499121,43.9271825 C64.7963946,44.7303825 64.8858438,45.6768441 65.6009447,46.5898287 C66.562955,47.8176441 68.4894397,48.3604133 70.7421801,47.5732133 C73.7829606,46.5120441 76.1202218,43.1828133 76.8631677,41.9751825 C74.6671032,41.6160441 73.7984848,42.4140748 73.4884928,42.8273671 C72.5925221,44.0204748 71.2754255,45.3605364 69.8952463,45.9520441 C67.0700803,47.1621364 65.2421621,44.6087825 67.4732178,42.5536441 C68.9837514,41.1616441 71.9806698,40.871921 74.6836131,41.2123518 C74.6836131,41.2123518 74.7501456,41.2125979 74.7498992,41.2125979 C78.1657257,41.6633056 80.7996725,42.6954287 81.3720982,42.9282902 C80.8479701,46.0059518 80.4790845,47.972721 80.4790845,47.972721 L81.4852034,47.9852748 C84.7724005,47.9837979 85.0612007,45.5316133 85.0612007,45.5316133 C85.066129,45.5360441 85.2302425,44.6688441 85.2302425,44.6688441 C88.24441,46.1484748 91.176028,47.7287825 91.32511,47.8164133 C92.0966403,48.2402902 93.212661,48.215921 93.385399,47.095921 L94.6623297,38.4133364 C98.0052169,38.2186287 101.288718,36.9179518 103.04074,35.0186287 C104.565812,36.2139518 105.977039,38.1189364 106.246126,40.423921 C104.380014,39.6138287 102.269456,39.1301364 100.102715,39.4656441 C95.0832092,40.2422595 93.3279839,45.3994287 96.0883424,48.3254595 C98.1592273,50.5209056 101.129533,50.7596748 104.324324,49.553521 C106.010306,48.9169671 107.671153,47.6694595 108.805655,45.9060133 C108.566631,45.6637979 108.113225,45.2372133 107.598461,44.9204133 C106.188711,44.0537056 105.143659,45.0358595 104.840073,45.3799825 C103.945581,46.4989979 102.721137,47.3169671 101.440018,47.6298287 C95.6014232,49.0538287 95.0509286,41.4169056 101.035648,41.1877364 C102.928127,41.115121 104.594642,41.9220133 106.062053,42.9836748 C106.06156,42.9844133 106.061068,42.9858902 106.061068,42.9866287 C107.576283,44.1233671 109.657025,46.228721 110.695424,46.9514287 C112.908738,48.4918595 115.065376,47.8134595 115.065376,47.8134595 C115.065376,47.8134595 114.692547,47.1997979 114.072563,46.4180133 C116.360048,43.4378287 117.666795,39.9860133 117.661621,36.3079825 L117.661621,36.3079825 Z M81.7838603,40.6028748 C80.6496048,40.2385671 78.5264796,39.7979518 78.0846547,39.7100748 L83.6960529,29.3657056 C83.1103207,32.8121056 82.3843775,37.0725364 81.7838603,40.6028748 L81.7838603,40.6028748 Z M94.9314166,36.5856441 L95.4479057,33.0749979 C91.5715266,33.1047825 91.0146251,35.7529056 90.9508032,36.1716133 C89.0960257,35.2780748 90.670874,33.3531518 93.2796863,32.8596133 C96.1686742,32.3126595 98.9107978,32.9578287 100.564253,33.6362287 C99.6345233,35.3460133 97.5794091,36.3648441 94.9314166,36.5856441 L94.9314166,36.5856441 Z M101.236724,31.5547518 C99.7673418,31.1705056 97.8085765,30.8224441 95.7660295,30.8953056 L96.4518068,26.2326595 C92.3201401,25.5367825 92.0951618,28.3121671 92.0951618,28.3121671 C91.9482975,29.3081056 91.7804878,30.4458287 91.6018358,31.6537056 C87.7656226,33.1377671 87.399694,36.5578287 90.6809771,37.889521 C90.3495468,40.132721 89.8355218,43.6049671 89.8278829,43.5995518 C88.7608991,43.134321 86.6163357,42.2589979 85.6627036,41.9074902 L88.2673267,25.3716133 C99.4309832,24.2156748 101.612016,29.3501979 101.236724,31.5547518 L101.236724,31.5547518 Z M109.095195,49.0205979 L109.090759,49.0240441 C104.441125,52.6764748 97.7102563,54.9760441 90.3581714,54.987121 C83.0566019,54.9981979 76.4659442,52.763121 71.7946252,49.2246595 C71.3333334,48.8756133 70.1635939,48.0837364 68.6932262,48.7978287 C73.6981933,53.6155518 81.5445898,56.7129056 90.362114,56.6993671 C99.2106868,56.6860748 107.072115,53.5424441 112.059833,48.6796748 C110.653287,47.9842902 109.4249,48.7739518 109.095195,49.0205979 L109.095195,49.0205979 Z" id="Shape"></path>
            </g>
        </g>
    </g>
</svg>